<?xml version="1.0" encoding="UTF-8"?>
<!-- Generator: visioncortex VTracer 0.6.12 -->
<svg version="1.1" xmlns="http://www.w3.org/2000/svg" width="1254" height="1254" viewBox="0 0 1254 1254">
<path fill-rule="evenodd" d="M0 0 C0.949 0 1.899 0 2.877 0 C3.97 -0.002 5.063 -0.004 6.189 -0.006 C6.799 -0.005 6.799 -0.005 9.881 0.002 C10.524 0.001 10.524 0.001 13.778 -0.002 C17.38 -0.005 20.982 -0.002 24.584 0.002 C28.491 0.006 32.397 0.003 36.304 0.002 C43.161 -0 50.018 0.001 56.875 0.005 C67.072 0.011 77.268 0.012 87.465 0.011 C104.614 0.01 121.764 0.013 138.913 0.019 C155.902 0.025 172.89 0.029 189.879 0.03 C190.406 0.03 190.406 0.03 193.076 0.03 C198.433 0.03 203.79 0.031 209.147 0.031 C247.126 0.033 285.104 0.04 323.083 0.049 C359.987 0.058 396.89 0.065 433.794 0.07 C434.362 0.07 434.362 0.07 437.239 0.07 C448.655 0.071 460.072 0.073 471.488 0.074 C494.746 0.077 518.004 0.079 541.262 0.082 C542.331 0.082 543.4 0.083 544.502 0.083 C615.959 0.092 687.416 0.108 758.873 0.125 C758.918 87.942 758.951 175.76 758.655 363.91 C758.652 365.38 758.649 366.849 758.646 368.319 C758.58 403.781 758.509 439.242 758.437 474.703 C758.391 497.581 758.345 520.458 758.301 543.335 C758.299 544.103 758.298 544.871 758.296 545.663 C758.281 553.387 758.266 561.111 758.251 568.835 C758.221 584.53 758.19 600.226 758.159 615.922 C758.158 616.642 758.157 617.361 758.155 618.103 C758.063 665.11 757.969 712.117 757.873 759.125 C660.283 759.444 562.692 759.736 186.323 760.248 C172.327 760.249 158.332 760.252 144.336 760.256 C124.901 760.262 105.466 760.265 86.031 760.26 C84.118 760.26 82.205 760.259 80.292 760.259 C79.354 760.259 78.416 760.259 77.45 760.258 C70.921 760.257 64.392 760.258 57.862 760.261 C50.078 760.264 42.294 760.263 34.51 760.258 C30.584 760.255 26.658 760.254 22.732 760.257 C18.517 760.261 14.302 760.257 10.086 760.252 C8.847 760.254 7.608 760.256 6.331 760.258 C5.775 760.257 5.775 760.257 2.962 760.251 C1.996 760.25 1.03 760.25 0.035 760.25 C-2.127 760.125 -2.127 760.125 -3.127 759.125 C-3.224 757.326 -3.25 755.524 -3.25 753.723 C-3.252 752.544 -3.254 751.364 -3.256 750.149 C-3.253 748.837 -3.25 747.525 -3.247 746.173 C-3.247 744.778 -3.248 743.383 -3.249 741.987 C-3.252 738.136 -3.248 734.285 -3.243 730.433 C-3.238 726.286 -3.24 722.14 -3.241 717.993 C-3.241 710.803 -3.238 703.613 -3.232 696.423 C-3.224 686.027 -3.222 675.631 -3.22 665.235 C-3.218 648.37 -3.212 631.505 -3.202 614.64 C-3.193 598.253 -3.186 581.866 -3.182 565.479 C-3.181 564.974 -3.181 564.974 -3.181 562.42 C-3.179 557.357 -3.178 552.294 -3.177 547.23 C-3.167 505.195 -3.148 463.16 -3.127 421.125 C30.533 421.125 64.193 421.125 98.873 421.125 C98.873 405.285 98.873 389.445 98.873 373.125 C112.111 355.475 112.111 355.475 118.748 346.812 C124.442 339.363 130.044 331.853 135.584 324.289 C139.946 318.348 144.394 312.477 148.873 306.625 C156.329 296.879 163.624 287.024 170.873 277.125 C178.153 267.189 185.473 257.295 192.983 247.532 C197.571 241.554 202.045 235.497 206.502 229.422 C211.376 222.783 216.313 216.194 221.263 209.612 C225.545 203.914 229.782 198.184 233.998 192.437 C240.504 183.574 247.161 174.832 253.873 166.125 C258.296 168.059 260.232 171.126 262.811 175.062 C263.785 176.514 264.759 177.966 265.733 179.418 C266.243 180.184 266.752 180.95 267.278 181.739 C270.001 185.81 272.786 189.839 275.561 193.875 C278.877 198.704 282.164 203.551 285.409 208.429 C289.016 213.85 292.651 219.252 296.295 224.648 C296.879 225.512 297.462 226.376 298.063 227.266 C299.285 229.076 300.508 230.887 301.731 232.697 C313.538 250.181 325.314 267.686 336.971 285.27 C338.214 287.136 339.468 288.995 340.733 290.846 C341.286 291.657 341.839 292.469 342.409 293.304 C342.648 293.652 342.648 293.652 343.862 295.413 C344.873 297.125 344.873 297.125 344.873 299.125 C348.553 295.538 351.947 291.811 355.248 287.875 C355.734 287.298 356.219 286.722 356.72 286.128 C359.848 282.395 362.879 278.603 365.838 274.734 C370.742 268.446 375.831 262.302 380.873 256.125 C384.12 257.495 385.682 258.844 387.616 261.773 C388.117 262.521 388.618 263.268 389.135 264.038 C389.667 264.85 390.2 265.663 390.748 266.5 C391.914 268.241 393.081 269.982 394.248 271.722 C394.548 272.171 394.548 272.171 396.065 274.442 C398.9 278.648 401.825 282.791 404.748 286.937 C420.1 308.808 434.929 331.041 449.862 353.199 C450.438 354.054 451.015 354.909 451.608 355.791 C451.875 356.186 451.875 356.186 453.222 358.186 C453.688 358.877 454.153 359.568 454.633 360.28 C455.717 361.892 456.796 363.508 457.873 365.125 C461.846 363.598 463.591 361.209 466.061 357.812 C466.449 357.28 466.449 357.28 468.412 354.59 C472.297 349.146 476.104 343.649 479.873 338.125 C484.013 339.653 486.097 342.628 488.623 346.062 C488.843 346.353 488.843 346.353 489.952 347.828 C493.296 352.291 496.563 356.812 499.83 361.332 C506.247 370.103 513.021 378.56 519.909 386.962 C524.285 392.331 528.443 397.839 532.564 403.405 C535.553 407.422 538.636 411.304 541.873 415.125 C546.244 420.286 550.307 425.63 554.34 431.058 C558.943 437.246 563.687 443.313 568.475 449.359 C570.967 452.506 573.452 455.659 575.936 458.812 C576.401 459.401 576.867 459.989 577.346 460.596 C579.286 463.058 581.133 465.515 582.873 468.125 C617.193 468.125 651.513 468.125 686.873 468.125 C686.898 459.296 686.923 450.467 686.949 441.371 C687.031 412.711 687.117 384.051 687.204 355.391 C687.218 350.895 687.232 346.4 687.246 341.904 C687.247 341.457 687.247 341.457 687.254 339.193 C687.297 324.947 687.338 310.701 687.378 296.454 C687.419 281.698 687.464 266.942 687.51 252.186 C687.538 243.28 687.565 234.373 687.588 225.467 C687.719 174.013 688.302 122.579 688.873 71.125 C484.273 71.125 279.673 71.125 68.873 71.125 C68.873 178.045 68.873 284.965 68.873 395.125 C45.443 395.125 22.013 395.125 -2.127 395.125 C-3.964 393.287 -3.252 390.329 -3.252 387.867 C-3.254 387.202 -3.255 386.538 -3.257 385.854 C-3.261 383.599 -3.257 381.345 -3.254 379.091 C-3.255 377.47 -3.256 375.849 -3.258 374.228 C-3.263 369.751 -3.26 365.275 -3.257 360.798 C-3.255 355.978 -3.259 351.159 -3.261 346.34 C-3.266 336.89 -3.265 327.44 -3.262 317.99 C-3.26 310.314 -3.259 302.638 -3.26 294.961 C-3.261 293.871 -3.261 292.781 -3.261 291.657 C-3.261 289.443 -3.262 287.228 -3.262 285.014 C-3.265 264.222 -3.261 243.43 -3.256 222.637 C-3.252 204.776 -3.252 186.914 -3.257 169.053 C-3.262 148.338 -3.264 127.623 -3.261 106.908 C-3.261 104.701 -3.261 102.495 -3.26 100.288 C-3.26 99.202 -3.26 98.116 -3.26 96.998 C-3.259 89.326 -3.261 81.654 -3.263 73.982 C-3.266 64.639 -3.265 55.297 -3.26 45.954 C-3.257 41.182 -3.256 36.411 -3.259 31.639 C-3.262 27.278 -3.261 22.917 -3.255 18.556 C-3.254 16.972 -3.255 15.387 -3.257 13.802 C-3.26 11.662 -3.257 9.522 -3.252 7.383 C-3.252 6.786 -3.252 6.786 -3.252 3.768 C-3.082 0.181 -3.082 0.181 0 0 Z M21.873 23.125 C20.655 93.79 20.655 93.79 20.43 120.224 C20.42 121.323 20.41 122.422 20.4 123.555 C20.37 127.057 20.34 130.56 20.311 134.062 C20.301 135.261 20.29 136.459 20.28 137.694 C19.857 186.883 19.765 236.073 19.751 285.264 C19.75 291.139 19.747 297.014 19.743 302.889 C19.735 313.137 19.734 323.385 19.739 333.633 C19.741 337.09 19.74 340.547 19.737 344.004 C19.734 348.005 19.736 352.007 19.742 356.009 C19.743 357.469 19.743 358.93 19.741 360.39 C19.738 362.367 19.742 364.343 19.746 366.32 C19.747 367.424 19.747 368.529 19.748 369.666 C19.873 372.125 19.873 372.125 20.873 373.125 C22.727 373.212 24.584 373.232 26.44 373.222 C27.564 373.219 28.689 373.216 29.848 373.213 C31.032 373.204 32.216 373.196 33.436 373.187 C34.624 373.183 35.812 373.178 37.035 373.173 C39.982 373.162 42.927 373.145 45.873 373.125 C46.008 349.354 46.138 325.584 46.265 301.814 C46.317 291.952 46.37 282.09 46.426 272.229 C46.851 197.525 46.873 122.831 46.873 48.125 C265.993 48.125 485.113 48.125 710.873 48.125 C710.373 358.187 710.373 358.187 710.215 455.988 C710.152 495.485 710.152 495.485 710.122 513.992 C710.1 527.726 710.078 541.461 710.055 555.196 C710.033 569.243 710.01 583.29 709.988 597.337 C709.974 605.659 709.961 613.981 709.947 622.303 C709.937 628.494 709.927 634.685 709.917 640.876 C709.914 643.344 709.909 645.812 709.905 648.28 C709.87 669.562 709.873 690.843 709.873 712.125 C604.603 712.125 499.333 712.125 390.873 712.125 C391.97 627.648 391.97 627.648 398.873 619.125 C400.77 617.368 402.733 615.681 404.748 614.062 C405.756 613.246 406.764 612.43 407.803 611.59 C409.351 610.347 410.899 609.105 412.466 607.886 C421.742 600.499 427.206 588.714 428.873 577.125 C428.961 575.176 429.002 573.225 429.005 571.274 C429.009 570.128 429.013 568.983 429.017 567.803 C429.016 566.561 429.016 565.318 429.015 564.038 C429.021 562.013 429.026 559.988 429.031 557.963 C429.037 555.794 429.04 553.625 429.042 551.456 C429.048 546.931 429.065 542.405 429.083 537.879 C429.09 536.327 429.096 534.775 429.102 533.224 C429.104 532.836 429.104 532.836 429.112 530.87 C429.154 520.339 429.187 509.809 429.199 499.278 C429.208 492.165 429.23 485.052 429.269 477.94 C429.288 474.178 429.301 470.418 429.296 466.657 C429.29 462.465 429.316 458.273 429.343 454.081 C429.337 452.837 429.33 451.593 429.323 450.311 C429.336 449.168 429.348 448.026 429.361 446.849 C429.362 446.353 429.362 446.353 429.368 443.847 C430.008 440.4 431.532 438.674 433.873 436.125 C436.513 436.125 439.153 436.125 441.873 436.125 C445.807 441.069 446.513 444.678 446.679 450.911 C446.717 451.776 446.755 452.64 446.794 453.531 C446.915 456.391 447.01 459.252 447.104 462.113 C447.184 464.133 447.265 466.153 447.349 468.173 C447.564 473.51 447.756 478.849 447.944 484.188 C448.135 489.494 448.348 494.798 448.559 500.103 C448.922 509.3 449.257 518.498 449.574 527.697 C449.759 533.007 449.959 538.317 450.181 543.626 C450.305 546.621 450.419 549.617 450.531 552.613 C450.608 554.564 450.696 556.514 450.786 558.463 C451.544 579.785 447.354 601.166 432.623 617.375 C428.219 622.088 423.405 626.093 418.186 629.894 C415.873 632.125 415.873 632.125 412.873 639.125 C412.873 656.285 412.873 673.445 412.873 691.125 C503.623 691.125 594.373 691.125 687.873 691.125 C687.873 671.325 687.873 651.525 687.873 631.125 C684.36 632.296 680.926 633.454 677.483 634.781 C660.683 641.175 660.683 641.175 652.873 642.125 C652.06 642.233 651.247 642.341 650.409 642.453 C619.196 646.108 593.018 634.558 566.169 619.967 C544.243 608.067 520.168 604.301 495.873 611.125 C484.565 615.103 474.027 620.436 463.436 626 C461.915 626.792 460.393 627.584 458.871 628.375 C455.202 630.284 451.536 632.202 447.873 634.125 C448.137 633.77 448.137 633.77 449.472 631.973 C453.331 626.733 456.999 621.549 460.186 615.875 C460.504 615.315 460.504 615.315 462.112 612.484 C463.873 609.125 463.873 609.125 465.002 605.496 C467.741 600.561 471.38 599.432 476.498 597.437 C476.965 597.246 476.965 597.246 479.327 596.281 C487.665 592.979 496.067 590.745 504.873 589.125 C505.356 589.029 505.356 589.029 507.799 588.547 C536.423 584.619 561.186 594.687 585.901 607.941 C610.313 621.027 634.441 627.942 661.873 620.125 C671.358 617.164 679.235 613.308 687.873 608.125 C687.873 598.555 687.873 588.985 687.873 579.125 C683.373 580.625 679.114 582.241 674.748 584.062 C649.044 594.547 621.475 593.418 595.873 583.125 C586.993 579.34 578.399 575.063 570.045 570.229 C547.373 557.122 522.523 552.466 496.873 559.125 C488.263 561.771 480.096 565.47 471.873 569.125 C471.873 561.865 471.873 554.605 471.873 547.125 C483.989 543.086 483.989 543.086 488.748 541.562 C489.379 541.354 490.009 541.146 490.659 540.931 C517.946 532.244 548.366 536.503 573.544 549.504 C577.323 551.532 581.074 553.608 584.817 555.701 C595.947 561.907 607.312 567.499 619.873 570.125 C620.74 570.306 621.606 570.488 622.498 570.675 C645.551 573.744 668.48 569.053 687.873 556.125 C687.873 534.345 687.873 512.565 687.873 490.125 C683.19 489.188 678.92 488.987 674.186 489.004 C673.312 489.004 672.438 489.003 671.537 489.002 C668.609 489 665.681 489.006 662.753 489.011 C660.654 489.011 658.555 489.011 656.455 489.011 C650.755 489.01 645.055 489.016 639.356 489.023 C633.399 489.03 627.443 489.03 621.486 489.031 C610.206 489.034 598.927 489.043 587.647 489.053 C574.805 489.064 561.964 489.069 549.122 489.074 C522.706 489.085 496.29 489.103 469.873 489.125 C469.213 482.525 468.553 475.925 467.873 469.125 C470.052 469.13 472.231 469.135 474.476 469.141 C481.716 469.157 488.957 469.168 496.197 469.176 C500.582 469.182 504.967 469.189 509.352 469.2 C513.592 469.211 517.833 469.217 522.073 469.22 C523.682 469.221 525.291 469.225 526.9 469.23 C535.937 469.26 544.875 469.086 553.873 468.125 C546.742 449.686 530.64 432.719 518.725 417.164 C515.349 412.756 512.009 408.323 508.686 403.875 C504.463 398.229 500.212 392.605 495.936 387 C495.404 386.301 494.872 385.602 494.324 384.882 C491.264 380.88 488.126 376.971 484.873 373.125 C481.182 374.355 480.163 375.863 477.748 378.875 C477.045 379.736 476.341 380.597 475.616 381.484 C472.963 385.505 472.756 388.808 473.061 393.5 C473.169 400.665 470.868 407.314 468.873 414.125 C468.531 415.456 468.192 416.788 467.873 418.125 C462.577 413.433 459.034 407.639 455.186 401.75 C454.469 400.663 453.752 399.577 453.013 398.458 C450.962 395.35 448.918 392.237 446.873 389.125 C445.274 386.705 443.669 384.289 442.061 381.875 C441.876 381.597 441.876 381.597 440.942 380.194 C427.244 359.672 413.286 339.316 399.338 318.965 C393.46 310.388 387.605 301.8 381.873 293.125 C377.467 294.673 375.251 298.155 372.561 301.75 C371.591 303.017 370.62 304.282 369.647 305.547 C369.176 306.159 368.705 306.772 368.22 307.404 C365.585 310.772 362.75 313.963 359.873 317.125 C360.467 321.598 362.179 324.805 364.436 328.687 C364.789 329.296 365.141 329.905 365.505 330.533 C368.483 335.613 371.731 340.487 375.112 345.308 C378.873 351.321 380.847 357.917 382.998 364.625 C386.811 376.314 391.287 387.721 395.873 399.125 C391.24 395.093 386.641 391.035 382.123 386.875 C381.09 385.924 380.056 384.974 379.022 384.023 C378.502 383.545 377.982 383.066 377.447 382.573 C372.93 378.415 368.405 374.267 363.873 370.125 C363.042 369.364 362.21 368.604 361.354 367.82 C358.876 365.57 356.38 363.342 353.873 361.125 C352.889 360.249 351.904 359.374 350.889 358.472 C343.021 351.587 334.707 345.708 325.873 340.125 C325.075 339.561 324.278 338.998 323.455 338.418 C319.893 336.634 316.492 336.32 312.561 335.937 C312.191 335.896 312.191 335.896 310.317 335.689 C308.503 335.49 306.689 335.306 304.873 335.125 C300.775 340.869 298.725 346.211 297.186 353.062 C296.793 354.76 296.394 356.457 295.987 358.152 C295.819 358.892 295.652 359.632 295.48 360.394 C294.873 362.125 294.873 362.125 292.873 363.125 C292.781 362.317 292.69 361.509 292.595 360.677 C291.699 356.266 290.094 352.419 288.33 348.293 C287.97 347.435 287.609 346.578 287.238 345.695 C286.06 342.898 284.873 340.105 283.686 337.312 C282.87 335.38 282.055 333.448 281.24 331.516 C279.184 326.644 277.12 321.775 275.054 316.907 C273.59 313.456 272.129 310.004 270.669 306.552 C266.093 295.734 261.504 284.92 256.873 274.125 C261.498 277.07 265.621 280.335 269.748 283.937 C270.058 284.205 270.058 284.205 271.623 285.56 C272.84 286.615 274.056 287.671 275.27 288.728 C276.556 289.849 277.847 290.964 279.139 292.078 C281.999 294.553 284.8 297.055 287.53 299.675 C298.171 309.865 316.354 325.125 331.873 325.125 C327.885 307.466 316.035 292.516 306.035 277.831 C302.818 273.105 299.612 268.37 296.404 263.638 C295.551 262.379 294.697 261.122 293.843 259.864 C281.059 241.036 268.476 222.074 255.873 203.125 C252.409 204.738 250.706 206.269 248.405 209.351 C247.757 210.21 247.109 211.07 246.442 211.955 C245.76 212.877 245.077 213.799 244.373 214.75 C243.664 215.695 242.954 216.641 242.223 217.615 C240.099 220.446 237.986 223.285 235.873 226.125 C234.242 228.304 232.608 230.481 230.973 232.659 C229.99 233.969 229.008 235.28 228.027 236.593 C225.053 240.569 222.04 244.512 218.998 248.437 C214.3 254.521 209.741 260.703 205.191 266.899 C199.964 274.014 194.676 281.083 189.368 288.138 C186.741 291.631 184.12 295.128 181.498 298.625 C180.553 299.885 179.608 301.146 178.662 302.406 C178.438 302.706 178.438 302.706 177.3 304.222 C174.825 307.523 172.349 310.824 169.873 314.125 C170.969 317.412 171.406 317.775 174.147 319.605 C174.807 320.047 175.467 320.488 176.147 320.943 C176.84 321.395 177.534 321.847 178.248 322.312 C178.934 322.776 179.62 323.239 180.327 323.716 C185.486 327.125 185.486 327.125 188.873 327.125 C189.069 327.776 189.265 328.427 189.467 329.097 C191.478 333.425 194.397 336.855 197.373 340.562 C202.984 347.66 208.351 354.865 213.555 362.263 C216.09 365.842 218.674 369.386 221.248 372.937 C227.089 381.009 232.853 389.132 238.578 397.286 C239.76 398.963 240.951 400.634 242.143 402.304 C242.776 403.194 243.409 404.083 244.061 405 C244.591 405.74 245.12 406.48 245.666 407.242 C246.873 409.125 246.873 409.125 247.873 412.125 C247.458 411.759 247.043 411.392 246.616 411.015 C237.944 403.396 229.236 395.807 220.248 388.562 C215.787 384.945 211.554 381.119 207.351 377.208 C204.14 374.237 200.847 371.425 197.436 368.687 C192.58 364.781 188.002 360.639 183.463 356.373 C181.943 354.946 180.409 353.535 178.873 352.125 C177.953 351.261 177.033 350.397 176.084 349.507 C172.05 346.514 168.015 344.923 163.311 343.25 C162.474 342.93 161.636 342.61 160.774 342.281 C157.491 341.085 154.617 340.156 151.116 340.007 C146.933 342.092 144.708 346.212 142.121 349.962 C139.236 354.075 136.275 357.844 132.773 361.451 C119.079 376.154 118.684 390.261 119.311 409.235 C119.416 412.956 119.427 416.678 119.448 420.4 C119.5 427.645 119.653 434.883 119.873 442.125 C119.254 442.124 119.254 442.124 116.122 442.118 C104.482 442.098 92.841 442.083 81.201 442.073 C75.216 442.068 69.231 442.061 63.246 442.049 C57.476 442.038 51.705 442.032 45.934 442.03 C43.727 442.028 41.52 442.024 39.314 442.019 C36.234 442.012 33.154 442.011 30.075 442.011 C29.153 442.008 28.231 442.004 27.28 442 C20.987 442.011 20.987 442.011 19.873 443.125 C19.776 444.693 19.748 446.265 19.748 447.836 C19.745 448.862 19.742 449.887 19.74 450.944 C19.742 452.084 19.744 453.225 19.746 454.4 C19.745 455.6 19.743 456.801 19.742 458.038 C19.738 461.386 19.74 464.734 19.743 468.082 C19.745 471.686 19.741 475.291 19.739 478.896 C19.734 485.963 19.735 493.031 19.738 500.098 C19.74 505.84 19.741 511.581 19.74 517.322 C19.739 518.138 19.739 518.953 19.739 519.793 C19.739 521.45 19.738 523.106 19.738 524.763 C19.735 540.314 19.739 555.866 19.744 571.417 C19.748 584.776 19.748 598.135 19.743 611.494 C19.738 626.988 19.736 642.482 19.739 657.976 C19.739 659.626 19.739 661.277 19.74 662.927 C19.74 663.739 19.74 664.552 19.74 665.388 C19.741 671.126 19.739 676.864 19.737 682.602 C19.734 689.589 19.735 696.577 19.74 703.565 C19.743 707.133 19.744 710.702 19.741 714.271 C19.737 718.13 19.741 721.99 19.746 725.85 C19.745 726.42 19.745 726.42 19.74 729.305 C19.742 730.331 19.745 731.356 19.748 732.413 C19.748 733.305 19.748 734.197 19.748 735.116 C19.873 737.125 19.873 737.125 20.873 738.125 C22.438 738.222 24.007 738.25 25.575 738.25 C26.6 738.253 27.626 738.255 28.682 738.258 C29.253 738.256 29.253 738.256 32.144 738.251 C33.351 738.252 34.557 738.253 35.8 738.255 C39.179 738.258 42.557 738.256 45.936 738.253 C49.6 738.251 53.265 738.254 56.929 738.256 C63.361 738.26 69.793 738.26 76.225 738.257 C85.79 738.254 95.354 738.255 104.919 738.259 C121.997 738.264 139.075 738.263 156.153 738.26 C171.098 738.258 186.042 738.257 200.987 738.258 C201.482 738.259 201.482 738.259 203.986 738.259 C208.003 738.259 212.02 738.259 216.037 738.26 C253.751 738.263 291.466 738.26 329.181 738.255 C362.72 738.25 396.26 738.25 429.799 738.255 C467.443 738.26 505.087 738.263 542.73 738.259 C546.74 738.259 550.75 738.259 554.759 738.258 C555.253 738.258 555.253 738.258 557.751 738.258 C572.69 738.257 587.629 738.258 602.568 738.261 C619.547 738.264 636.526 738.263 653.505 738.258 C663.018 738.255 672.532 738.255 682.045 738.258 C688.388 738.261 694.73 738.259 701.073 738.255 C704.695 738.252 708.317 738.252 711.938 738.255 C715.826 738.259 719.714 738.255 723.602 738.251 C724.745 738.253 725.888 738.255 727.065 738.258 C727.577 738.256 727.577 738.256 730.172 738.25 C731.063 738.25 731.953 738.25 732.871 738.25 C734.873 738.125 734.873 738.125 735.873 737.125 C735.971 735.56 735.998 733.99 735.998 732.422 C736 731.397 736.002 730.371 736.004 729.314 C736.002 728.171 735.999 727.028 735.996 725.851 C735.998 724.644 735.999 723.437 736 722.193 C736.002 718.813 736 715.434 735.996 712.054 C735.992 708.396 735.995 704.739 735.996 701.082 C735.998 694.655 735.997 688.229 735.993 681.802 C735.987 672.122 735.986 662.442 735.987 652.762 C735.988 636.542 735.985 620.322 735.979 604.103 C735.971 582.172 735.969 560.241 735.968 538.309 C735.963 485.56 735.949 432.811 735.936 380.062 C735.915 262.273 735.895 144.483 735.873 23.125 C500.253 23.125 264.633 23.125 21.873 23.125 Z " fill="#1e4461" transform="translate(249.12661925330758,238.87532883509994)"/>
<path fill-rule="evenodd" d="M0 0 C20.626 18.17 35.26 43.303 37.395 71.109 C39.147 101.544 31.303 128.73 11.395 152.109 C10.735 152.955 10.075 153.801 9.395 154.672 C6.433 158.282 2.985 161.143 -0.605 164.109 C-1.189 164.593 -1.773 165.076 -2.375 165.574 C-25.141 183.48 -52.146 190.721 -80.906 187.882 C-108.773 184.266 -133.163 169.956 -150.605 148.109 C-169.11 122.704 -176.006 93.82 -172.145 62.496 C-167.214 35.496 -151.669 10.492 -129.418 -5.578 C-89.272 -32.152 -37.452 -31.22 0 0 Z M-131.605 27.109 C-146.542 45.521 -152.284 67.775 -150.605 91.109 C-147.608 114.244 -136.519 133.218 -118.918 148.359 C-100.212 162.611 -76.417 167.921 -53.264 164.793 C-48.907 163.95 -44.769 162.621 -40.605 161.109 C-39.564 160.747 -38.522 160.385 -37.449 160.012 C-15.202 151.554 -0.019 134.468 9.537 113.194 C11.809 107.672 13.181 101.947 14.395 96.109 C14.47 95.748 14.47 95.748 14.852 93.922 C15.167 91.969 15.31 90.087 15.395 88.109 C15.446 87.025 15.498 85.941 15.551 84.824 C16.16 60.292 6.91 38.313 -9.879 20.641 C-26.995 4.751 -48.556 -2.554 -71.676 -2.164 C-95.091 -1.232 -116.214 9.604 -131.605 27.109 Z " fill="#1e4461" transform="translate(859.60546875,365.890625)"/>
<path fill-rule="evenodd" d="M0 0 C2.88 2.069 4.74 3.714 5.462 7.281 C5.638 10.213 5.652 13.108 5.615 16.045 C5.621 17.159 5.626 18.274 5.632 19.422 C5.644 23.105 5.62 26.786 5.594 30.469 C5.592 33.028 5.592 35.587 5.594 38.146 C5.592 43.51 5.574 48.873 5.542 54.236 C5.505 60.43 5.496 66.625 5.503 72.819 C5.51 78.786 5.499 84.753 5.479 90.719 C5.472 93.255 5.469 95.791 5.47 98.327 C5.468 101.87 5.447 105.412 5.42 108.955 C5.423 110.005 5.426 111.054 5.429 112.135 C5.324 121.051 5.324 121.051 2 125 C-1.647 127.526 -4.642 127.132 -8.875 126.547 C-11.858 125.779 -13.242 124.491 -15 122 C-15.95 119.15 -16.13 117.377 -16.14 114.421 C-16.143 113.951 -16.143 113.951 -16.158 111.575 C-16.159 110.546 -16.16 109.517 -16.161 108.458 C-16.166 107.373 -16.171 106.288 -16.176 105.17 C-16.191 101.574 -16.198 97.979 -16.203 94.383 C-16.209 91.888 -16.215 89.393 -16.22 86.898 C-16.23 82.334 -16.236 77.769 -16.239 73.204 C-16.243 67.157 -16.255 61.111 -16.281 55.064 C-16.309 48.577 -16.322 42.089 -16.324 35.602 C-16.327 33.128 -16.335 30.653 -16.348 28.179 C-16.365 24.72 -16.363 21.261 -16.356 17.801 C-16.366 16.777 -16.375 15.752 -16.384 14.696 C-16.333 6.01 -16.333 6.01 -13 2 C-9.062 -1.376 -4.807 -1.894 0 0 Z " fill="#1e4461" transform="translate(612,674)"/>
<path fill-rule="evenodd" d="M0 0 C3.092 2.6 3.677 3.481 4.75 7.312 C5.048 10.867 5.044 14.409 5.041 17.974 C5.044 18.511 5.044 18.511 5.061 21.228 C5.08 24.776 5.084 28.323 5.086 31.871 C5.092 34.338 5.099 36.805 5.106 39.272 C5.118 44.443 5.122 49.614 5.121 54.784 C5.12 61.41 5.148 68.035 5.182 74.661 C5.204 79.756 5.208 84.851 5.207 89.946 C5.21 92.389 5.219 94.831 5.234 97.274 C5.254 100.69 5.248 104.105 5.236 107.521 C5.247 108.53 5.258 109.538 5.27 110.577 C5.217 116.47 4.655 119.812 0.75 124.312 C-2.88 126.862 -5.891 126.444 -10.125 125.859 C-13.108 125.092 -14.492 123.803 -16.25 121.312 C-17.198 118.468 -17.382 116.691 -17.397 113.74 C-17.404 112.802 -17.411 111.864 -17.419 110.898 C-17.422 109.871 -17.424 108.844 -17.427 107.786 C-17.434 106.703 -17.44 105.619 -17.447 104.503 C-17.467 100.912 -17.478 97.322 -17.488 93.73 C-17.492 92.505 -17.496 91.28 -17.501 90.017 C-17.519 84.201 -17.534 78.386 -17.542 72.57 C-17.551 66.531 -17.57 60.491 -17.607 54.452 C-17.645 47.971 -17.664 41.49 -17.668 35.009 C-17.673 32.539 -17.685 30.068 -17.703 27.597 C-17.728 24.14 -17.727 20.684 -17.72 17.227 C-17.726 16.717 -17.726 16.717 -17.759 14.133 C-17.715 8.207 -17.18 4.838 -13.25 0.312 C-8.905 -2.874 -4.624 -2.401 0 0 Z " fill="#1e4461" transform="translate(654.25,674.6875)"/>
<path fill-rule="evenodd" d="M0 0 C2.365 1.867 3.66 3.321 5 6 C5.087 7.717 5.109 9.438 5.1 11.158 C5.097 12.251 5.094 13.344 5.091 14.47 C5.083 15.675 5.074 16.88 5.066 18.122 C5.059 20.065 5.052 22.007 5.045 23.949 C5.036 26.043 5.025 28.136 5.014 30.229 C4.991 34.602 4.978 38.975 4.966 43.347 C4.933 55.784 4.892 68.221 4.829 80.657 C4.794 87.522 4.77 94.387 4.758 101.252 C4.752 104.88 4.739 108.507 4.713 112.135 C4.684 116.198 4.679 120.262 4.675 124.325 C4.669 124.916 4.669 124.916 4.638 127.903 C4.678 144.62 8.8 159.31 20.43 171.629 C23.227 174.21 26.16 176.404 29.25 178.625 C37.169 184.338 40.944 190.596 42.539 200.269 C42.972 203.771 43.127 207.108 43.129 210.635 C43.133 211.91 43.136 213.185 43.139 214.498 C43.137 215.872 43.135 217.247 43.133 218.621 C43.133 220.049 43.134 221.477 43.136 222.906 C43.137 225.89 43.135 228.875 43.13 231.86 C43.125 235.667 43.128 239.474 43.134 243.281 C43.138 246.228 43.136 249.175 43.134 252.122 C43.133 253.525 43.134 254.927 43.136 256.33 C43.139 258.299 43.134 260.268 43.129 262.236 C43.129 262.794 43.129 262.794 43.127 265.617 C42.984 269.427 42.473 273.217 42 277 C-63.27 277 -168.54 277 -277 277 C-277 196.81 -277 116.62 -277 34 C-264.625 32.875 -264.625 32.875 -258.462 32.873 C-258.122 32.872 -258.122 32.872 -256.404 32.868 C-254.169 32.864 -251.934 32.867 -249.699 32.871 C-248.077 32.869 -246.455 32.867 -244.834 32.865 C-240.442 32.861 -236.051 32.863 -231.659 32.866 C-226.994 32.868 -222.328 32.866 -217.663 32.864 C-209.78 32.862 -201.898 32.865 -194.015 32.87 C-186.048 32.874 -178.08 32.875 -170.112 32.87 C-124.73 32.842 -79.373 32.979 -34 34 C-34.33 40.6 -34.66 47.2 -35 54 C-41.75 55.125 -41.75 55.125 -45.065 55.123 C-45.442 55.124 -45.442 55.124 -47.349 55.129 C-48.161 55.126 -48.972 55.123 -49.808 55.12 C-50.683 55.121 -51.558 55.122 -52.459 55.123 C-55.384 55.124 -58.309 55.119 -61.234 55.114 C-63.333 55.113 -65.433 55.113 -67.532 55.114 C-73.228 55.114 -78.924 55.108 -84.619 55.101 C-90.573 55.095 -96.527 55.095 -102.48 55.093 C-113.753 55.09 -125.026 55.082 -136.299 55.072 C-149.133 55.061 -161.967 55.055 -174.801 55.05 C-201.201 55.04 -227.6 55.022 -254 55 C-254 74.47 -254 93.94 -254 114 C-247.4 111.36 -240.8 108.72 -234 106 C-212.807 100.179 -189.432 97.672 -168 104 C-167.384 104.155 -167.384 104.155 -164.27 104.938 C-151.816 108.361 -140.609 114.608 -129.315 120.731 C-117.156 127.268 -104.299 133.037 -90.5 134.938 C-89.716 135.051 -88.933 135.165 -88.126 135.281 C-70.775 137.514 -55.419 133.473 -39 128 C-38.67 131.465 -38.67 131.465 -37 149 C-58.064 158.362 -81.681 159.956 -104 154 C-104.331 153.914 -104.331 153.914 -106.009 153.479 C-122.331 149.071 -137.33 140.825 -152.105 132.777 C-175 120.565 -201.829 118.838 -226.543 126.031 C-235.827 129.136 -244.325 133.51 -253 138 C-253.33 147.24 -253.66 156.48 -254 166 C-251.174 164.763 -248.349 163.525 -245.438 162.25 C-237.081 158.686 -228.904 155.909 -220 154 C-219.481 153.888 -219.481 153.888 -216.852 153.32 C-184.89 147.443 -155.636 157.868 -127.859 172.823 C-103.698 185.81 -78.097 191.862 -51 184 C-45.441 182.133 -40.063 180.095 -34.879 177.344 C-32 176 -32 176 -28 176 C-27.602 176.748 -27.203 177.495 -26.793 178.266 C-26.263 179.25 -25.733 180.235 -25.188 181.25 C-24.665 182.225 -24.143 183.199 -23.605 184.203 C-22 187 -22 187 -20.301 189.234 C-19 191 -19 191 -19 193 C-48.946 208.088 -78.979 213.979 -111.785 203.453 C-123.015 199.666 -133.311 194.344 -143.772 188.82 C-153.608 183.629 -163.129 178.618 -174 176 C-174.36 175.912 -174.36 175.912 -176.179 175.464 C-202.082 169.618 -227.224 175.908 -250.145 188.117 C-252 189 -252 189 -254 189 C-254 211.11 -254 233.22 -254 256 C-163.58 255.67 -73.16 255.34 20 255 C20 201.204 20 201.204 14.477 195.305 C13.536 194.503 12.595 193.701 11.625 192.875 C-5.821 177.832 -15.829 161.251 -18 138 C-18.498 124.513 -17.565 110.941 -17.012 97.469 C-16.986 96.839 -16.986 96.839 -16.856 93.652 C-16.639 88.364 -16.422 83.076 -16.2 77.787 C-15.883 70.255 -15.576 62.722 -15.282 55.189 C-15.049 49.218 -14.8 43.247 -14.546 37.277 C-14.44 34.748 -14.339 32.219 -14.243 29.689 C-14.108 26.161 -13.956 22.634 -13.8 19.107 C-13.764 18.066 -13.728 17.025 -13.691 15.953 C-13.436 10.64 -13.059 6.541 -10 2 C-6.279 -0.48 -4.402 -0.463 0 0 Z " fill="#1e4461" transform="translate(572,674)"/>
</svg>
